<svg xmlns="http://www.w3.org/2000/svg" width="128" height="128" viewBox="0 0 128 128" role="img" aria-label="Desert street tile icon">
  <defs>
    <linearGradient id="sand" x1="0" y1="0" x2="0" y2="1">
      <stop offset="0%" stop-color="#ceb079"/>
      <stop offset="100%" stop-color="#a88456"/>
    </linearGradient>
    <linearGradient id="road" x1="0" y1="0" x2="1" y2="1">
      <stop offset="0%" stop-color="#6f6659"/>
      <stop offset="100%" stop-color="#4d473f"/>
    </linearGradient>
    <filter id="shadow" x="-20%" y="-20%" width="140%" height="140%">
      <feDropShadow dx="0" dy="2" stdDeviation="2" flood-color="#2b2418" flood-opacity="0.45"/>
    </filter>
  </defs>

  <rect width="128" height="128" rx="10" fill="url(#sand)"/>

  <g fill="#92744b" opacity="0.55">
    <circle cx="17" cy="28" r="2"/>
    <circle cx="25" cy="85" r="2"/>
    <circle cx="103" cy="22" r="2"/>
    <circle cx="87" cy="105" r="2"/>
    <circle cx="56" cy="17" r="1.8"/>
    <circle cx="69" cy="111" r="1.6"/>
  </g>

  <g filter="url(#shadow)">
    <path d="M16 64c0-9 7-16 16-16h64c9 0 16 7 16 16s-7 16-16 16H32c-9 0-16-7-16-16z" fill="url(#road)"/>
    <path d="M64 16c9 0 16 7 16 16v64c0 9-7 16-16 16s-16-7-16-16V32c0-9 7-16 16-16z" fill="url(#road)"/>
  </g>

  <path d="M64 24v80M24 64h80" stroke="#d9c996" stroke-width="4" stroke-linecap="round" stroke-dasharray="8 8" opacity="0.95"/>
  <path d="M64 24v80M24 64h80" stroke="#bca970" stroke-width="1.5" stroke-linecap="round" stroke-dasharray="8 8" opacity="0.5"/>

  <rect x="3" y="3" width="122" height="122" rx="8" fill="none" stroke="#6a5032" stroke-opacity="0.45"/>
</svg>
